<svg data-v-0dd9719b="" version="1.0" xmlns="http://www.w3.org/2000/svg" xmlns:xlink="http://www.w3.org/1999/xlink" width="100%" height="100%" viewBox="0 0 340.000000 250.000000" preserveAspectRatio="xMidYMid meet" color-interpolation-filters="sRGB" style="margin: auto;"> <rect data-v-0dd9719b="" x="0" y="0" width="100%" height="100%" fill="#fff" fill-opacity="1" class="background"></rect> <rect data-v-0dd9719b="" x="0" y="0" width="100%" height="100%" fill="url(#watermark)" fill-opacity="1" class="watermarklayer"></rect> <g data-v-0dd9719b="" fill="#239d33" class="icon-text-wrapper icon-svg-group iconsvg" transform="translate(72.8248291015625,99.32210350036621)"><g class="iconsvg-imagesvg" transform="translate(0,0)"><g><rect fill="#239d33" fill-opacity="0" stroke-width="2" x="0" y="0" width="60" height="51.35579293344289" class="image-rect"></rect> <svg x="0" y="0" width="60" height="51.35579293344289" filtersec="colorsb4120168655" class="image-svg-svg primary" style="overflow: visible;"><svg xmlns="http://www.w3.org/2000/svg" viewBox="0 0 62.470001220703125 53.470001220703125"><defs><radialGradient id="afff8a3c3-604a-44a1-a8ab-e2f16f3da262" cx="117.51" cy="204.78" r="19.92" gradientTransform="translate(-81.77 -195.87)" gradientUnits="userSpaceOnUse"><stop offset="0" stop-color="#8fc31f"></stop><stop offset=".16" stop-color="#8bc120"></stop><stop offset=".32" stop-color="#7ebd22"></stop><stop offset=".5" stop-color="#68b526"></stop><stop offset=".68" stop-color="#49ab2c"></stop><stop offset=".86" stop-color="#239d33"></stop><stop offset="1" stop-color="#00913a"></stop></radialGradient><linearGradient id="bbb824698-22a5-40b5-81e5-2d36ebf63536" x1="130.88" y1="231.51" x2="130.88" y2="213.69" gradientTransform="translate(-81.77 -195.87)" gradientUnits="userSpaceOnUse"><stop offset="0" stop-color="#00a0e9"></stop><stop offset=".17" stop-color="#019ce6"></stop><stop offset=".34" stop-color="#048fdc"></stop><stop offset=".53" stop-color="#0979cb"></stop><stop offset=".72" stop-color="#105ab4"></stop><stop offset=".91" stop-color="#193497"></stop><stop offset="1" stop-color="#1d2088"></stop></linearGradient><radialGradient id="ccd34fa87-c635-4d02-8313-37db162221ef" cx="732.2" cy="2957.26" r="19.92" gradientTransform="rotate(180 379.47 1500.91)" gradientUnits="userSpaceOnUse"><stop offset="0" stop-color="#e61673"></stop><stop offset=".14" stop-color="#df1674"></stop><stop offset=".33" stop-color="#cd1777"></stop><stop offset=".56" stop-color="#ae177b"></stop><stop offset=".81" stop-color="#841881"></stop><stop offset="1" stop-color="#601986"></stop></radialGradient><linearGradient id="dfc8df634-9985-430b-a648-270a36222683" x1="745.57" y1="2984" x2="745.57" y2="2966.18" gradientTransform="rotate(180 379.47 1500.91)" gradientUnits="userSpaceOnUse"><stop offset="0" stop-color="#f39800"></stop><stop offset=".16" stop-color="#f29102"></stop><stop offset=".4" stop-color="#ef7e08"></stop><stop offset=".68" stop-color="#eb5e11"></stop><stop offset=".75" stop-color="#ea5514"></stop><stop offset="1" stop-color="#e83828"></stop></linearGradient></defs><g><g><path fill="url(#afff8a3c3-604a-44a1-a8ab-e2f16f3da262)" d="M9.01 17.82L26.83 0h26.73l8.91 17.82H9.01z"></path><path fill="url(#bbb824698-22a5-40b5-81e5-2d36ebf63536)" d="M62.47 17.82l-8.91 17.82-17.82-17.82"></path><path fill="url(#ccd34fa87-c635-4d02-8313-37db162221ef)" d="M53.46 35.64L35.64 53.47H8.91L0 35.64h53.46z"></path><path fill="url(#dfc8df634-9985-430b-a648-270a36222683)" d="M0 35.64l8.91-17.82 17.82 17.82"></path></g></g></svg></svg> <!----></g></g> <g transform="translate(67,0.6257877349853516)"><g data-gra="path-name" fill-rule="" class="tp-name iconsvg-namesvg"><g transform="scale(1)"><g><path d="M1.14-12.95Q1.14-9.35 2.52-6.4 3.9-3.45 6.48-1.72 9.05 0 12.5 0L12.5 0Q16.02 0 18.59-1.76 21.17-3.52 22.51-6.55 23.86-9.58 23.86-13.25L23.86-13.25Q23.86-16.89 22.53-19.9 21.21-22.91 18.65-24.71 16.09-26.51 12.5-26.51L12.5-26.51Q8.82-26.51 6.27-24.71 3.71-22.91 2.42-19.82 1.14-16.74 1.14-12.95L1.14-12.95ZM4.66-12.8Q4.66-17.38 6.48-20.45 8.29-23.52 12.5-23.52L12.5-23.52Q15.22-23.52 17.02-22.1 18.82-20.68 19.5-18.35 20.18-16.02 20.18-13.25L20.18-13.25Q20.18-10.41 19.5-8.07 18.82-5.72 17.02-4.28 15.22-2.84 12.5-2.84L12.5-2.84Q9.85-2.84 7.99-4.2 6.13-5.57 5.4-7.84 4.66-10.11 4.66-12.8L4.66-12.8ZM31.7-23.36L37.79-23.36Q40.71-23.36 42.26-22.44 43.81-21.51 43.81-18.78L43.81-18.78Q43.81-16.13 42.26-15.17 40.71-14.2 37.79-14.2L37.79-14.2 31.7-14.2 31.7-23.36ZM40.33-11.36Q47.64-12.19 47.64-18.78L47.64-18.78Q47.64-23.21 44.87-24.84L44.87-24.84Q42.07-26.51 37.49-26.51L37.49-26.51 28.02-26.51 28.02 0 31.13 0Q31.35 0 31.52-0.17 31.7-0.34 31.7-0.57L31.7-0.57 31.7-11.21 36.69-11.21 43.47 0 47.26 0 40.33-11.36ZM56.04-26.51L52.3-26.51 52.3 0 55.48 0Q55.7 0 55.87-0.17 56.04-0.34 56.04-0.57L56.04-0.57 56.04-26.51ZM79.18 0Q79.41 0 79.58-0.17 79.75-0.34 79.75-0.57L79.75-0.57 79.75-3.14 64.68-3.14 64.68-12.16 78.39-12.16Q78.61-12.16 78.78-12.33 78.95-12.5 78.95-12.72L78.95-12.72 78.95-15.26 64.68-15.26 64.6-23.4 78.58-23.4Q78.8-23.4 78.97-23.57 79.14-23.74 79.14-23.97L79.14-23.97 79.14-26.51 60.82-26.51 60.82 0 79.18 0ZM88.19 0Q88.42 0 88.59-0.17 88.76-0.34 88.76-0.57L88.76-0.57 88.91-20.52 101.94 0 104.86 0Q105.08 0 105.25-0.17 105.42-0.34 105.42-0.57L105.42-0.57 105.42-26.51 101.56-26.51 101.56-5.83 88.53-26.51 85.05-26.51 85.05 0 88.19 0ZM120.68 0Q120.91 0 121.08-0.17 121.25-0.34 121.25-0.57L121.25-0.57 121.25-23.36 127.92-23.36Q128.14-23.36 128.31-23.53 128.49-23.71 128.49-23.93L128.49-23.93 128.49-26.51 110.35-26.51 110.35-23.36 117.54-23.36 117.54 0 120.68 0Z" transform="translate(-1.1399999856948853, 26.510000228881836)"></path></g> <!----> <!----> <!----> <!----> <!----> <!----> <g data-gra="path-name-1" fill="#239d33" transform="translate(0,29.510000228881836)"><g transform="scale(0.99345)"><path d="M10.19 0Q10.46 0 10.57-0.26L10.57-0.26 17.92-20.5 15.38-20.5 9.43-3.84 3.46-20.5 0.35-20.5 7.79 0 10.19 0ZM20.91 0.03L22.96-6.18 32.04-6.18 34.21 0.03 37.02 0.03 28.79-20.47 25.77-20.47 17.98 0.03 20.91 0.03ZM27.47-17.95L31.25-8.38 23.69-8.38 27.47-17.95ZM41.62 0Q41.79 0 41.92-0.13 42.05-0.26 42.05-0.44L42.05-0.44 42.17-15.87 52.25 0 54.5 0Q54.68 0 54.81-0.13 54.94-0.26 54.94-0.44L54.94-0.44 54.94-20.5 51.95-20.5 51.95-4.51 41.88-20.5 39.18-20.5 39.18 0 41.62 0ZM66.74 0Q66.92 0 67.05-0.13 67.18-0.26 67.18-0.44L67.18-0.44 67.18-18.07 72.34-18.07Q72.51-18.07 72.64-18.2 72.78-18.33 72.78-18.51L72.78-18.51 72.78-20.5 58.75-20.5 58.75-18.07 64.31-18.07 64.31 0 66.74 0ZM76.58 0.03L78.63-6.18 87.71-6.18 89.88 0.03 92.69 0.03 84.46-20.47 81.44-20.47 73.65 0.03 76.58 0.03ZM83.14-17.95L86.92-8.38 79.36-8.38 83.14-17.95ZM101.77-10.16L106.28-10.19Q107.8-10.22 110.67-10.22L110.67-10.22 110.67-7.88Q110.67-5.97 109.57-4.09 108.47-2.2 106.54-0.98 104.61 0.23 102.18 0.23L102.18 0.23Q99.28 0.23 97.23-1.26 95.18-2.75 94.14-5.17 93.1-7.59 93.1-10.31L93.1-10.31Q93.1-12.94 94.11-15.26 95.12-17.57 97.11-18.96 99.1-20.35 101.89-20.27L101.89-20.27Q108.12-20.27 110.44-14.35L110.44-14.35 108.15-13.76Q107.39-14.97 106.51-15.9 105.63-16.84 104.59-17.29 103.55-17.75 101.89-17.75L101.89-17.75Q100.01-17.75 98.63-16.63 97.26-15.52 96.69-13.72 96.12-11.92 96.12-9.9L96.12-9.9Q96.12-7.91 96.69-6.15 97.26-4.39 98.74-3.32 100.22-2.26 102.35-2.26L102.35-2.26Q104.73-2.26 106.26-3.79 107.8-5.33 108.27-7.85L108.27-7.85 101.77-7.85 101.77-10.16ZM128.1 0Q128.27 0 128.4-0.13 128.54-0.26 128.54-0.44L128.54-0.44 128.54-2.43 116.88-2.43 116.88-9.4 127.48-9.4Q127.66-9.4 127.79-9.53 127.92-9.66 127.92-9.84L127.92-9.84 127.92-11.8 116.88-11.8 116.82-18.1 127.63-18.1Q127.8-18.1 127.94-18.23 128.07-18.36 128.07-18.54L128.07-18.54 128.07-20.5 113.89-20.5 113.89 0 128.1 0Z" transform="translate(-0.3500000238418579, 20.5)"></path></g></g></g></g> <!----></g></g><defs v-gra="od"></defs></svg>